<?xml version="1.0"?>


<svg width="143.49512mm" height="124.28633mm" viewBox="0 0 143.49512 124.28633" version="1.1" id="svg1" xmlns:inkscape="http://www.inkscape.org/namespaces/inkscape" xmlns:sodipodi="http://sodipodi.sourceforge.net/DTD/sodipodi-0.dtd" xmlns="http://www.w3.org/2000/svg" xmlns:svg="http://www.w3.org/2000/svg">
  <namedview id="namedview1" pagecolor="#ffffff" bordercolor="#000000" borderopacity="0.25" showguides="true"></namedview>
  <defs id="defs1">
    <linearGradient id="swatch18">
      <stop style="stop-color:#1a1a1a;stop-opacity:1;" offset="0" id="stop18"></stop>
    </linearGradient>
  </defs>
  <g id="layer1" transform="translate(-29.827637,-73.28972)">
    <path style="fill:#1a1a1a;stroke-width:0.264583" d="M 30.585473,112.53146 96.373094,73.28972" id="path1"></path>
    <path id="path2" style="fill:#000000;stroke-width:0.265;fill-opacity:1;stroke-dasharray:none" d="m 99.030131,77.765796 -2.294434,7.085356 -7.446573,0.130224 6.029606,4.371826 -2.177128,7.122046 6.020821,-4.383712 6.100407,4.271574 -2.30839,-7.080704 5.94796,-4.481897 -7.44761,0.0072 z m 70.440659,16.838249 -6.02082,4.383711 -6.10092,-4.271574 2.30839,7.080708 -5.94796,4.48189 7.44761,-0.007 2.42466,7.04143 2.29443,-7.08536 7.44657,-0.1297 -6.0296,-4.37183 z m -123.882358,1.753381 -2.618445,1.906344 -3.402376,2.47737 -0.587561,-0.41135 -5.512842,-3.860226 1.872754,5.744866 0.435632,1.33584 -5.947957,4.4819 7.447607,-0.007 2.424658,7.04195 2.294434,-7.08587 7.446574,-0.12971 -6.029606,-4.37183 1.97714,-6.46782 z m 83.245048,6.025984 c -15.37375,-0.4449 -29.808,14.38466 -29.808,14.38466 0,0 -26.170975,-31.220939 -49.127751,1.37769 -22.956776,32.59862 49.586638,79.43029 49.586638,79.43029 0,0 71.625193,-39.9446 52.341503,-77.59371 -6.62876,-12.94188 -14.93947,-17.36588 -22.99239,-17.59893 z m -20.75636,27.35958 c 0.22578,0 0.47949,0.0283 0.76171,0.0847 0.28223,0.0564 0.42375,0.18382 0.42375,0.38138 0,0.28222 -0.14152,0.47932 -0.42375,0.59221 -0.28222,0.0847 -0.55008,0.12712 -0.80408,0.12712 -0.67733,0 -1.34043,-0.0283 -1.98954,-0.0847 -0.62089,-0.0564 -1.17129,-0.11253 -1.65107,-0.16898 -0.45155,0.0847 -1.11465,0.33838 -1.98954,0.76171 -0.87489,0.39511 -1.66536,0.8889 -2.37091,1.48157 -1.439338,1.24177 -2.681135,2.51188 -3.725357,3.8101 -1.015999,1.27 -1.947478,2.61087 -2.794144,4.02198 -0.846666,1.38288 -1.679079,2.85009 -2.497522,4.40231 -0.818444,1.524 -1.735771,3.14688 -2.75177,4.86844 -0.790222,1.32644 -1.707032,2.639 -2.751254,3.93722 -1.015999,1.27 -2.201706,2.41274 -3.556372,3.42874 -1.326443,0.98777 -2.836107,1.7924 -4.529439,2.41329 -1.693332,0.62088 -3.598232,0.9312 -5.714897,0.9312 -0.846666,0 -1.721535,-0.0849 -2.624646,-0.25424 -0.874888,-0.16934 -1.693664,-0.46551 -2.455664,-0.88884 -0.733777,-0.42333 -1.340266,-0.97373 -1.820044,-1.65106 -0.479777,-0.70556 -0.719852,-1.56627 -0.719852,-2.58227 0,-0.762 0.21177,-1.45341 0.635103,-2.07429 0.423333,-0.64911 1.058127,-0.97359 1.904793,-0.97359 0.592667,0 1.100605,0.21177 1.523938,0.63511 0.423333,0.39511 0.635104,0.88889 0.635104,1.48156 0,0.53622 -0.155161,0.94509 -0.465605,1.22731 -0.310444,0.28223 -0.70568,0.46569 -1.185457,0.55036 0.02822,1.49578 0.409305,2.54047 1.143082,3.13314 0.733778,0.59267 1.792112,0.88884 3.175,0.88884 1.41111,0 2.709521,-0.28254 3.894853,-0.84698 1.213555,-0.56445 2.314347,-1.31194 3.302124,-2.24328 1.015999,-0.95955 1.946962,-2.03204 2.793628,-3.21737 0.874888,-1.18533 1.66536,-2.39883 2.370915,-3.6406 0.733777,-1.24178 1.411029,-2.45528 2.031917,-3.64061 0.620888,-1.18533 1.213742,-2.23003 1.778186,-3.13314 1.072444,-1.74978 2.102474,-3.27359 3.090251,-4.57182 0.987777,-1.29822 2.074417,-2.44095 3.259749,-3.42873 1.213555,-1.016 2.568058,-1.90502 4.063835,-2.66702 1.523999,-0.79022 3.330345,-1.53823 5.418795,-2.24379 v -0.0847 c -1.35467,0 -2.97755,0.0566 -4.868441,0.1695 -1.890888,0.0847 -3.86655,0.26813 -5.92677,0.55036 -2.031999,0.28222 -4.063754,0.69109 -6.095752,1.22731 -2.003777,0.508 -3.810126,1.1994 -5.418791,2.07429 -1.580443,0.84667 -2.864701,1.905 -3.852478,3.175 -0.987777,1.24178 -1.481563,2.72365 -1.481563,4.44521 0,1.18533 0.324473,2.1729 0.973584,2.96313 0.677333,0.762 1.608812,1.14308 2.794144,1.14308 0.790222,0 1.538236,-0.16931 2.243791,-0.50798 0.705555,-0.36689 1.326197,-0.83237 1.862419,-1.39681 0.564444,-0.59267 1.002137,-1.24162 1.312581,-1.94717 0.338666,-0.73378 0.507979,-1.46764 0.507979,-2.20142 0,-0.42333 -0.05661,-0.83272 -0.169498,-1.22783 -0.112889,-0.39511 -0.26805,-0.79035 -0.465605,-1.18546 l 0.42323,-0.16898 c 0.141111,0.31044 0.296271,0.69101 0.465605,1.14257 0.169333,0.42333 0.254248,0.93178 0.254248,1.52445 0,1.016 -0.225923,1.96111 -0.677478,2.836 -0.451556,0.84667 -1.058562,1.58053 -1.820561,2.20142 -0.761999,0.62089 -1.636869,1.10052 -2.624646,1.43919 -0.987777,0.33866 -2.003655,0.50798 -3.047876,0.50798 -0.790222,0 -1.524083,-0.12686 -2.201416,-0.38086 -0.677333,-0.254 -1.26967,-0.60678 -1.777669,-1.05833 -0.508,-0.47978 -0.903236,-1.04433 -1.185458,-1.69344 -0.282222,-0.67733 -0.42323,-1.42483 -0.42323,-2.24327 0,-1.72156 0.550397,-3.20343 1.651062,-4.44521 1.100666,-1.27 2.525415,-2.34249 4.275192,-3.21737 1.749776,-0.87489 3.711286,-1.58045 5.884395,-2.11667 2.201332,-0.56444 4.388764,-1.00214 6.561873,-1.31258 2.17311,-0.31045 4.23317,-0.5217 6.180502,-0.63459 1.975554,-0.11289 3.598437,-0.1695 4.868437,-0.1695 1.58044,0 2.92079,-0.0425 4.02146,-0.12712 1.12889,-0.0847 1.91936,-0.12712 2.37091,-0.12712 z m 10.28671,0.42374 c 0.56445,0 1.10069,0.0561 1.60869,0.16898 0.53622,0.11289 1.00222,0.29636 1.39733,0.55036 0.39511,0.254 0.71959,0.57847 0.97359,0.97358 0.254,0.39511 0.38085,0.86111 0.38085,1.39733 0,0.62089 -0.1127,1.14298 -0.33848,1.56632 -0.22578,0.42333 -0.5361,0.76195 -0.93121,1.01595 -0.36689,0.254 -0.80458,0.42332 -1.31258,0.50798 -0.508,0.0847 -1.03009,0.12713 -1.56631,0.12713 0.22578,-0.59267 0.43755,-1.18552 0.6351,-1.77819 0.19756,-0.62089 0.29611,-1.25568 0.29611,-1.90479 0,-0.67734 -0.15516,-1.19943 -0.46561,-1.56631 -0.28222,-0.36689 -0.77601,-0.55036 -1.48156,-0.55036 -0.81844,0 -1.62255,0.35278 -2.41277,1.05833 -0.79022,0.70556 -1.63731,1.59458 -2.54042,2.66703 -0.87488,1.04422 -1.86246,2.18695 -2.96312,3.42873 -1.07245,1.24177 -2.31425,2.39918 -3.72536,3.47162 -1.41111,1.04422 -3.01984,1.91909 -4.82606,2.62465 -1.777997,0.70555 -3.823905,1.05833 -6.138126,1.05833 v 0.0842 c 1.269999,0.508 2.200962,1.17162 2.793628,1.99006 0.620888,0.81844 0.931726,1.87678 0.931726,3.175 0,0.70556 -0.141525,1.46721 -0.423747,2.28565 -0.254,0.81844 -0.550168,1.62307 -0.888834,2.41329 -0.310445,0.762 -0.606613,1.49586 -0.888835,2.20141 -0.254,0.67734 -0.380855,1.25552 -0.380855,1.7353 0,0.90311 0.352778,1.35496 1.058333,1.35496 0.310444,0 0.747621,-0.12686 1.312065,-0.38086 0.564444,-0.254 1.22754,-0.64924 1.989545,-1.18546 0.34421,-0.24586 0.70473,-0.52153 1.08107,-0.8263 -0.0432,-0.23412 -0.0651,-0.48055 -0.0651,-0.74001 0,-0.67733 0.21177,-1.29849 0.6351,-1.86294 0.42333,-0.59266 1.05864,-0.88883 1.90531,-0.88883 0.37936,0 0.71395,0.0765 1.00407,0.22944 0.37589,-0.40395 0.761,-0.83319 1.15497,-1.28777 0.762,-0.90311 1.39679,-1.69359 1.90479,-2.37092 0.45827,-0.57886 0.89606,-1.13668 1.3131,-1.67431 l -0.0853,-0.061 c 0.36688,-0.508 0.7616,-1.01594 1.18494,-1.52394 0.45155,-0.53622 0.9317,-1.01637 1.4397,-1.43971 0.53622,-0.45155 1.11441,-0.80433 1.7353,-1.05833 0.64911,-0.28222 1.34051,-0.42323 2.07429,-0.42323 1.18533,0 2.13096,0.33863 2.83652,1.01596 0.70555,0.67733 1.17103,1.5522 1.39681,2.62465 0.95956,-0.93134 2.0462,-1.73544 3.25975,-2.41278 1.21356,-0.70555 2.51197,-1.05833 3.89485,-1.05833 0.45156,0 0.91704,0.0425 1.39682,0.12712 0.47978,0.0847 0.91747,0.23983 1.31258,0.46561 0.39511,0.22578 0.71958,0.52194 0.97358,0.88883 0.254,0.33867 0.38086,0.79 0.38086,1.35444 0,0.87489 -0.35278,1.53851 -1.05833,1.99006 -0.67734,0.42333 -1.39705,0.63459 -2.15905,0.63459 -0.31044,0 -0.59246,-0.0419 -0.84646,-0.12661 0.14112,-0.47978 0.25382,-0.93162 0.33848,-1.35496 0.11289,-0.45155 0.1695,-0.97364 0.1695,-1.56631 0,-0.59266 -0.12685,-1.05815 -0.38085,-1.39681 -0.22578,-0.33867 -0.57856,-0.50798 -1.05834,-0.50798 -0.73377,0 -1.5667,0.32447 -2.49803,0.97358 -0.93134,0.64911 -1.80621,1.48153 -2.62465,2.49752 -0.81844,1.016 -1.50985,2.17341 -2.07429,3.47163 -0.56445,1.27 -0.84646,2.5401 -0.84646,3.8101 0,1.10067 0.31032,1.91893 0.93121,2.45515 0.62089,0.508 1.43915,0.76171 2.45514,0.76171 1.12889,0 2.3146,-0.36642 3.55638,-1.10019 1.27,-0.762 2.48349,-1.67933 3.6406,-2.75177 1.18533,-1.07245 2.27197,-2.18739 3.25975,-3.3445 1.016,-1.18533 1.83426,-2.18706 2.45515,-3.0055 l 0.25425,0.21135 c -0.90311,1.18534 -1.94781,2.46959 -3.13315,3.85248 -1.15711,1.35467 -2.42669,2.61062 -3.80958,3.76773 -1.35467,1.12889 -2.80824,2.07452 -4.36046,2.83652 -1.524,0.762 -3.09027,1.14257 -4.69894,1.14257 -1.29822,0 -2.32825,-0.33863 -3.09025,-1.01596 -0.73378,-0.70556 -1.15732,-1.60873 -1.27021,-2.7094 -0.53622,0.45156 -1.11492,0.88925 -1.73581,1.31258 -0.62089,0.42334 -1.28398,0.79027 -1.98954,1.10071 -0.67733,0.31045 -1.39704,0.56416 -2.15904,0.76171 -0.73378,0.19756 -1.49594,0.29662 -2.28617,0.29662 -1.52399,0 -2.68088,-0.32447 -3.4711,-0.97358 -0.45934,-0.3643 -0.78961,-0.80439 -0.99116,-1.31982 -0.14855,0.11804 -0.29792,0.23365 -0.44803,0.34624 -0.90311,0.67733 -1.820438,1.21357 -2.751771,1.60868 -0.90311,0.42334 -1.77798,0.62044 -2.624646,0.59222 -0.987777,0 -1.791884,-0.31033 -2.412772,-0.93121 -0.620889,-0.64911 -0.931726,-1.45322 -0.931726,-2.41278 0,-0.90311 0.183465,-1.79213 0.550354,-2.66702 0.39511,-0.90311 0.832804,-1.80628 1.312581,-2.70939 0.451555,-0.87489 0.860427,-1.7073 1.227315,-2.49752 0.395111,-0.81845 0.592729,-1.55231 0.592729,-2.20142 0,-0.90311 -0.225406,-1.53842 -0.676961,-1.90531 -0.423333,-0.39511 -1.044492,-0.59273 -1.862936,-0.59273 -0.141111,0 -0.296271,0.0142 -0.465604,0.0424 -0.169334,0.0282 -0.338646,0.0424 -0.50798,0.0424 h -0.33848 c -0.112889,-0.0282 -0.169499,-0.11262 -0.169499,-0.25373 0,-0.14111 0.0844,-0.24018 0.253731,-0.29662 0.197556,-0.0565 0.367385,-0.0842 0.508496,-0.0842 0.310445,0 0.606613,0.0278 0.888835,0.0842 0.310444,0.0282 0.620765,0.0424 0.931209,0.0424 1.41111,0 2.695368,-0.35278 3.852478,-1.05833 1.185333,-0.73378 2.328067,-1.63695 3.428727,-2.7094 1.10067,-1.07244 2.20146,-2.22933 3.30213,-3.4711 1.12889,-1.24178 2.32823,-2.39867 3.59823,-3.47111 1.27,-1.07244 2.66696,-1.96147 4.19096,-2.66702 1.55222,-0.73378 3.2878,-1.10071 5.20691,-1.10071 z m -4.14858,15.74788 c -0.45155,0 -0.90288,0.1127 -1.35444,0.33848 -0.45155,0.22578 -0.87509,0.50831 -1.27021,0.84698 -0.39511,0.33866 -0.76204,0.71923 -1.1007,1.14256 -0.26322,0.30709 -0.50055,0.60603 -0.71262,0.89607 l 0.11989,0.12041 c -0.39511,0.56444 -0.90305,1.25584 -1.52394,2.07429 -0.62089,0.79022 -1.31229,1.62263 -2.07429,2.49752 -0.28477,0.33954 -0.58023,0.67901 -0.88625,1.01854 0.36501,0.33838 0.54777,0.78886 0.54777,1.35186 0,0.56444 -0.19762,1.03044 -0.59273,1.39733 -0.36689,0.36689 -0.79043,0.55035 -1.27021,0.55035 0,0.64911 0.19762,1.15705 0.59273,1.52394 0.39511,0.36689 0.9172,0.55036 1.56631,0.55036 1.18534,0 2.37104,-0.40939 3.55638,-1.22784 1.21355,-0.84666 2.29967,-1.86254 3.25923,-3.04787 0.95955,-1.21356 1.73587,-2.49782 2.32854,-3.85248 0.59266,-1.38289 0.88883,-2.62469 0.88883,-3.72535 0,-0.70556 -0.15516,-1.28374 -0.4656,-1.7353 -0.31045,-0.47978 -0.84669,-0.71985 -1.60869,-0.71985 z"></path>
  </g>
  
</svg>