<svg xmlns="http://www.w3.org/2000/svg" width="143" height="124" viewBox="0 0 143.49512 124.28633" role="img" aria-label="Kaylee Xiao logo">
  <g transform="translate(-29.827637,-73.28972)">
    <path style="fill:#1a1a1a;stroke-width:0.264583" d="M 30.585473,112.53146 96.373094,73.28972"></path>
    <path style="fill:#1a1a1a;stroke-width:0.265;fill-opacity:1" d="m 99.030131,77.765796 -2.294434,7.085356 -7.446573,0.130224 6.029606,4.371826 -2.177128,7.122046 6.020821,-4.383712 6.100407,4.271574 -2.30839,-7.080704 5.94796,-4.481897 -7.44761,0.0072 z m 70.440659,16.838249 -6.02082,4.383711 -6.10092,-4.271574 2.30839,7.080708 -5.94796,4.48189 7.44761,-0.007 2.42466,7.04143 2.29443,-7.08536 7.44657,-0.1297 -6.0296,-4.37183 z m -123.882358,1.753381 -2.618445,1.906344 -3.402376,2.47737 -0.587561,-0.41135 -5.512842,-3.860226 1.872754,5.744866 0.435632,1.33584 -5.947957,4.4819 7.447607,-0.007 2.424658,7.04195 2.294434,-7.08587 7.446574,-0.12971 -6.029606,-4.37183 1.97714,-6.46782 z m 83.245048,6.025984 c -15.37375,-0.4449 -29.808,14.38466 -29.808,14.38466 0,0 -26.170975,-31.220939 -49.127751,1.37769 -22.956776,32.59862 49.586638,79.43029 49.586638,79.43029 0,0 71.625193,-39.9446 52.341503,-77.59371 -6.62876,-12.94188 -14.93947,-17.36588 -22.99239,-17.59893 z"></path>
  </g>
</svg>